<?xml version="1.0" encoding="UTF-8"?>
<svg width="80px" height="80px" viewBox="0 0 80 80" version="1.1" xmlns="http://www.w3.org/2000/svg" xmlns:xlink="http://www.w3.org/1999/xlink">
    <!-- Generator: Sketch 55.2 (78181) - https://sketchapp.com -->
    <title>Facebook</title>
    <desc>Created with Sketch.</desc>
    <g id="Pages" stroke="none" stroke-width="1" fill="none" fill-rule="evenodd">
        <g id="0.0-Home" transform="translate(-740.000000, -6545.000000)" fill="#0D0E0E">
            <g id="Social" transform="translate(0.000000, 6115.000000)">
                <path d="M815.584889,430.000444 L744.416,430.000444 C741.976,430.000444 740.000444,431.978222 740.000444,434.413778 L740.000444,505.584889 C740.000444,508.022667 741.976,510.000444 744.416,510.000444 L782.729333,510.000444 L782.729333,479.020444 L772.304889,479.020444 L772.304889,466.947111 L782.729333,466.947111 L782.729333,458.042667 C782.729333,447.709333 789.040444,442.084889 798.260444,442.084889 C802.673778,442.084889 806.469333,442.411556 807.576,442.558222 L807.576,453.358222 L801.182667,453.360444 C796.169333,453.360444 795.198222,455.742667 795.198222,459.238222 L795.198222,466.947111 L807.153778,466.947111 L805.598222,479.020444 L795.198222,479.020444 L795.198222,510.000444 L815.584889,510.000444 C818.022667,510.000444 820.000444,508.022667 820.000444,505.584889 L820.000444,434.413778 C820.000444,431.978222 818.022667,430.000444 815.584889,430.000444" id="Facebook"></path>
            </g>
        </g>
    </g>
</svg>