<?xml version="1.0" encoding="UTF-8"?>
<svg width="80px" height="80px" viewBox="0 0 80 80" version="1.1" xmlns="http://www.w3.org/2000/svg" xmlns:xlink="http://www.w3.org/1999/xlink">
    <!-- Generator: Sketch 55.2 (78181) - https://sketchapp.com -->
    <title>Instagram</title>
    <desc>Created with Sketch.</desc>
    <g id="Pages" stroke="none" stroke-width="1" fill="none" fill-rule="evenodd">
        <g id="0.0-Home" transform="translate(-1100.000000, -6545.000000)" fill="#0D0E0E">
            <g id="Social" transform="translate(0.000000, 6115.000000)">
                <g id="Instagram" transform="translate(1100.000000, 430.000000)">
                    <path d="M40.0000794,0 C50.8633478,0 52.2255235,0.0460462725 56.4919488,0.240710859 C60.7494825,0.434899105 63.6572252,1.11114419 66.2015199,2.10002759 C68.8318735,3.12209606 71.0625773,4.48982913 73.2864535,6.71354654 C75.5101709,8.93742272 76.8779039,11.1681265 77.9001312,13.7984801 C78.8888558,16.3427748 79.5651009,19.2505175 79.7592891,23.5080512 C79.9539537,27.7744765 80,29.1366522 80,40.0000794 C80,50.8633478 79.9539537,52.2255235 79.7592891,56.4919488 C79.5651009,60.7494825 78.8888558,63.6572252 77.9001312,66.2015199 C76.8779039,68.8318735 75.5101709,71.0625773 73.2864535,73.2864535 C71.0625773,75.5101709 68.8318735,76.8779039 66.2015199,77.9001312 C63.6572252,78.8888558 60.7494825,79.5651009 56.4919488,79.7592891 C52.2255235,79.9539537 50.8633478,80 40.0000794,80 C29.1366522,80 27.7744765,79.9539537 23.5080512,79.7592891 C19.2505175,79.5651009 16.3427748,78.8888558 13.7984801,77.9001312 C11.1681265,76.8779039 8.93742272,75.5101709 6.71354654,73.2864535 C4.48982913,71.0625773 3.12209606,68.8318735 2.10002759,66.2015199 C1.11114419,63.6572252 0.434899105,60.7494825 0.240710859,56.4919488 C0.0460462725,52.2255235 0,50.8633478 0,40.0000794 C0,29.1366522 0.0460462725,27.7744765 0.240710859,23.5080512 C0.434899105,19.2505175 1.11114419,16.3427748 2.10002759,13.7984801 C3.12209606,11.1681265 4.48982913,8.93742272 6.71354654,6.71354654 C8.93742272,4.48982913 11.1681265,3.12209606 13.7984801,2.10002759 C16.3427748,1.11114419 19.2505175,0.434899105 23.5080512,0.240710859 C27.7744765,0.0460462725 29.1366522,0 40.0000794,0 Z M40.0000794,7.20719433 C29.3195671,7.20719433 28.0544061,7.24800086 23.8365675,7.44044252 C19.936607,7.6182764 17.8186372,8.26991055 16.4091449,8.81770241 C14.542048,9.54332815 13.2095641,10.4101095 11.8099162,11.8099162 C10.4101095,13.2095641 9.54332815,14.542048 8.81770241,16.4091449 C8.26991055,17.8186372 7.6182764,19.936607 7.44044252,23.8365675 C7.24800086,28.0544061 7.20719433,29.3195671 7.20719433,40.0000794 C7.20719433,50.6804329 7.24800086,51.9455939 7.44044252,56.1634325 C7.6182764,60.063393 8.26991055,62.1813628 8.81770241,63.5908551 C9.54332815,65.457952 10.4102683,66.7904359 11.8099162,68.1900838 C13.2095641,69.5898905 14.542048,70.4566718 16.4091449,71.1822976 C17.8186372,71.7300895 19.936607,72.3817236 23.8365675,72.5595575 C28.0539297,72.7519991 29.3187732,72.7928057 40.0000794,72.7928057 C50.6812268,72.7928057 51.9462291,72.7519991 56.1634325,72.5595575 C60.063393,72.3817236 62.1813628,71.7300895 63.5908551,71.1822976 C65.457952,70.4566718 66.7904359,69.5898905 68.1900838,68.1900838 C69.5898905,66.7904359 70.4566718,65.457952 71.1822976,63.5908551 C71.7300895,62.1813628 72.3817236,60.063393 72.5595575,56.1634325 C72.7519991,51.9455939 72.7928057,50.6804329 72.7928057,40.0000794 C72.7928057,29.3195671 72.7519991,28.0544061 72.5595575,23.8365675 C72.3817236,19.936607 71.7300895,17.8186372 71.1822976,16.4091449 C70.4566718,14.542048 69.5898905,13.2095641 68.1900838,11.8099162 C66.7904359,10.4101095 65.457952,9.54332815 63.5908551,8.81770241 C62.1813628,8.26991055 60.063393,7.6182764 56.1634325,7.44044252 C51.9455939,7.24800086 50.6804329,7.20719433 40.0000794,7.20719433 Z" id="Combined-Shape"></path>
                    <path d="M40.0000794,19.4594723 C51.3442931,19.4594723 60.5405277,28.6557069 60.5405277,40.0000794 C60.5405277,51.3442931 51.3442931,60.5405277 40.0000794,60.5405277 C28.6557069,60.5405277 19.4594723,51.3442931 19.4594723,40.0000794 C19.4594723,28.6557069 28.6557069,19.4594723 40.0000794,19.4594723 Z M40.0000794,53.3333333 C47.363831,53.3333333 53.3333333,47.363831 53.3333333,40.0000794 C53.3333333,32.636169 47.363831,26.6666667 40.0000794,26.6666667 C32.636169,26.6666667 26.6666667,32.636169 26.6666667,40.0000794 C26.6666667,47.363831 32.636169,53.3333333 40.0000794,53.3333333 Z" id="Combined-Shape"></path>
                    <path d="M66.1521393,18.6479465 C66.1521393,21.2989415 64.0030486,23.4478734 61.3520535,23.4478734 C58.7012172,23.4478734 56.5521266,21.2989415 56.5521266,18.6479465 C56.5521266,15.9969514 58.7012172,13.8478607 61.3520535,13.8478607 C64.0030486,13.8478607 66.1521393,15.9969514 66.1521393,18.6479465" id="Fill-5"></path>
                </g>
            </g>
        </g>
    </g>
</svg>