<?xml version="1.0" encoding="UTF-8"?>
<svg width="80px" height="66px" viewBox="0 0 80 66" version="1.1" xmlns="http://www.w3.org/2000/svg" xmlns:xlink="http://www.w3.org/1999/xlink">
    <!-- Generator: Sketch 55.2 (78181) - https://sketchapp.com -->
    <title>Twitter</title>
    <desc>Created with Sketch.</desc>
    <g id="Pages" stroke="none" stroke-width="1" fill="none" fill-rule="evenodd">
        <g id="0.0-Home" transform="translate(-920.000000, -6551.000000)" fill="#0D0E0E">
            <g id="Social" transform="translate(0.000000, 6115.000000)">
                <path d="M1000,444.362889 C997.055556,445.667333 993.893333,446.549556 990.573333,446.947333 C993.962222,444.916222 996.564444,441.700667 997.788889,437.867333 C994.62,439.747333 991.106667,441.114 987.366667,441.849556 C984.373333,438.660667 980.106667,436.667333 975.386667,436.667333 C966.322222,436.667333 958.973333,444.016222 958.973333,453.078444 C958.973333,454.365111 959.12,455.616222 959.397778,456.818444 C945.757778,456.136222 933.664444,449.600667 925.568889,439.671778 C924.157778,442.094 923.346667,444.914 923.346667,447.922889 C923.346667,453.616222 926.244444,458.640667 930.648889,461.582889 C927.957778,461.498444 925.426667,460.760667 923.215556,459.529556 C923.213333,459.598444 923.213333,459.667333 923.213333,459.736222 C923.213333,467.689556 928.871111,474.322889 936.38,475.829556 C935.002222,476.205111 933.551111,476.407333 932.055556,476.407333 C930.997778,476.407333 929.968889,476.302889 928.966667,476.111778 C931.055556,482.634 937.117778,487.376222 944.3,487.509556 C938.682222,491.911778 931.604444,494.536222 923.915556,494.536222 C922.591111,494.536222 921.284444,494.458444 920,494.307333 C927.264444,498.962889 935.891111,501.680667 945.16,501.680667 C975.348889,501.680667 991.857778,476.671778 991.857778,454.980667 C991.857778,454.271778 991.842222,453.562889 991.808889,452.858444 C995.017778,450.545111 997.8,447.654 1000,444.362889" id="Twitter"></path>
            </g>
        </g>
    </g>
</svg>