<?xml version="1.0" encoding="UTF-8"?>
<svg width="80px" height="57px" viewBox="0 0 80 57" version="1.1" xmlns="http://www.w3.org/2000/svg" xmlns:xlink="http://www.w3.org/1999/xlink">
    <!-- Generator: Sketch 55.2 (78181) - https://sketchapp.com -->
    <title>YouTube</title>
    <desc>Created with Sketch.</desc>
    <g id="Pages" stroke="none" stroke-width="1" fill="none" fill-rule="evenodd">
        <g id="0.0-Home" transform="translate(-560.000000, -6556.000000)" fill="#0D0E0E">
            <g id="Social" transform="translate(0.000000, 6115.000000)">
                <path d="M639.2,453.334716 C639.2,453.334716 640,459.85565 640,466.374066 L640,472.487127 C640,479.008062 639.2,485.526478 639.2,485.526478 C639.2,485.526478 638.4175,491.078084 636.02,493.522805 C632.9775,496.732918 629.5675,496.748024 628.005,496.936854 C616.81,497.7526 600,497.777778 600,497.777778 C600,497.777778 579.2,497.58643 572.8,496.967067 C571.02,496.632208 567.0225,496.732918 563.9775,493.522805 C561.58,491.078084 560.8,485.526478 560.8,485.526478 C560.8,485.526478 560,479.008062 560,472.487127 L560,466.374066 C560,459.85565 560.8,453.334716 560.8,453.334716 C560.8,453.334716 561.58,447.783109 563.9775,445.338389 C567.0225,442.128276 570.43,442.11317 571.995,441.926857 C583.19,441.111111 599.9825,441.111111 599.9825,441.111111 L600.0175,441.111111 C600.0175,441.111111 616.81,441.111111 628.005,441.926857 C629.5675,442.11317 632.9775,442.128276 636.02,445.338389 C638.4175,447.783109 639.2,453.334716 639.2,453.334716 Z M591.74,479.894304 L613.3525,468.614851 L591.7375,457.257347 L591.74,479.894304 Z" id="YouTube"></path>
            </g>
        </g>
    </g>
</svg>